<?xml version="1.0" encoding="UTF-8"?>
<svg xmlns="http://www.w3.org/2000/svg" xmlns:xlink="http://www.w3.org/1999/xlink" version="1.1" id="Layer_1" x="0px" y="0px" width="300" height="212" style="enable-background:new 0 0 10194 7298;" xml:space="preserve" viewBox="1880.21 1265.81 6419.06 4540.82">
<style type="text/css">
	.st0{fill:#0066B2;}
	.st1{fill:#00AEEF;}
</style>
<path class="st0" d="M2383.39,5549.68c0-14.31-2-27.25-6-38.83c-4-11.56-11.91-22.52-23.69-32.83s-28.31-20.52-49.56-30.63  c-21.25-10.09-49.14-20.83-83.64-32.2c-40.41-13.47-79.34-28.61-116.8-45.45c-37.47-16.83-70.72-36.81-99.75-59.97  c-29.05-23.16-52.3-50.2-69.77-81.14s-26.2-67.02-26.2-108.27c0-39.56,8.83-75.23,26.52-107.02c17.67-31.78,42.3-58.81,73.86-81.13  s68.92-39.56,112.06-51.78c43.14-12.2,90.17-18.31,141.11-18.31c50.09,0,96.17,6.73,138.27,20.2s78.28,32.63,108.59,57.45  c30.3,24.84,53.97,54.83,71.02,89.97c17.05,35.16,25.58,74.41,25.58,117.75h-220.97c0-17.25-2.64-33.14-7.89-47.67  c-5.27-14.52-13.27-26.94-24-37.25s-23.98-18.41-39.77-24.3s-34.41-8.84-55.88-8.84c-21.05,0-39.56,2.42-55.56,7.27  s-29.36,11.58-40.09,20.2s-18.83,18.52-24.3,29.67s-8.2,23.05-8.2,35.67c0,13.89,3.89,26.41,11.67,37.56s18.94,21.69,33.47,31.58  c14.52,9.89,32.19,19.14,53.03,27.77c20.83,8.63,44.3,17.16,70.39,25.58c48.81,15.58,92.38,32.83,130.69,51.77  c38.3,18.94,70.59,40.63,96.91,65.03s46.3,51.98,59.98,82.7c13.67,30.73,20.52,65.45,20.52,104.17c0,41.25-8.11,77.98-24.31,110.17  c-16.2,32.2-39.14,59.25-68.81,81.13c-29.67,21.89-65.45,38.52-107.33,49.88s-88.5,17.05-139.84,17.05  c-31.56,0-62.92-2.64-94.06-7.89c-31.16-5.25-60.94-13.36-89.34-24.3s-54.92-24.73-79.55-41.36s-45.89-36.5-63.77-59.66  c-17.89-23.16-31.98-49.45-42.3-78.92s-15.47-62.3-15.47-98.5h222.23c0,26.94,3.58,49.56,10.73,67.88s17.67,33.16,31.56,44.52  c13.89,11.38,30.83,19.47,50.83,24.31c19.98,4.84,43.03,7.25,69.13,7.25c21.05,0,39.05-2.41,53.98-7.25s27.25-11.36,36.94-19.58  c9.67-8.2,16.72-17.78,21.14-28.72S2383.39,5561.9,2383.39,5549.68z"></path>
<path class="st0" d="M3192.8,5549.68c0-14.31-2-27.25-6-38.83c-4-11.56-11.91-22.52-23.69-32.83s-28.31-20.52-49.56-30.63  c-21.25-10.09-49.14-20.83-83.64-32.2c-40.41-13.47-79.34-28.61-116.8-45.45c-37.47-16.83-70.72-36.81-99.75-59.97  c-29.05-23.16-52.3-50.2-69.77-81.14s-26.2-67.02-26.2-108.27c0-39.56,8.83-75.23,26.52-107.02c17.67-31.78,42.3-58.81,73.86-81.13  s68.92-39.56,112.06-51.78c43.14-12.2,90.17-18.31,141.11-18.31c50.09,0,96.17,6.73,138.27,20.2s78.28,32.63,108.59,57.45  c30.3,24.84,53.97,54.83,71.02,89.97c17.05,35.16,25.58,74.41,25.58,117.75h-220.97c0-17.25-2.64-33.14-7.89-47.67  c-5.27-14.52-13.27-26.94-24-37.25s-23.98-18.41-39.77-24.3s-34.41-8.84-55.88-8.84c-21.05,0-39.56,2.42-55.56,7.27  s-29.36,11.58-40.09,20.2s-18.83,18.52-24.3,29.67s-8.2,23.05-8.2,35.67c0,13.89,3.89,26.41,11.67,37.56s18.94,21.69,33.47,31.58  c14.52,9.89,32.19,19.14,53.03,27.77c20.83,8.63,44.3,17.16,70.39,25.58c48.81,15.58,92.38,32.83,130.69,51.77  c38.3,18.94,70.59,40.63,96.91,65.03s46.3,51.98,59.98,82.7c13.67,30.73,20.52,65.45,20.52,104.17c0,41.25-8.11,77.98-24.31,110.17  c-16.2,32.2-39.14,59.25-68.81,81.13c-29.67,21.89-65.45,38.52-107.33,49.88s-88.5,17.05-139.84,17.05  c-31.56,0-62.92-2.64-94.06-7.89c-31.16-5.25-60.94-13.36-89.34-24.3s-54.92-24.73-79.55-41.36s-45.89-36.5-63.77-59.66  c-17.89-23.16-31.98-49.45-42.3-78.92s-15.47-62.3-15.47-98.5h222.23c0,26.94,3.58,49.56,10.73,67.88s17.67,33.16,31.56,44.52  c13.89,11.38,30.83,19.47,50.83,24.31c19.98,4.84,43.03,7.25,69.13,7.25c21.05,0,39.05-2.41,53.98-7.25s27.25-11.36,36.94-19.58  c9.67-8.2,16.72-17.78,21.14-28.72S3192.8,5561.9,3192.8,5549.68z"></path>
<path class="st0" d="M3528.06,5794.01v-919.25h296.09c62.28,0,119.53,10.73,171.72,32.2s97.13,51.67,134.8,90.61  s67.03,85.44,88.08,139.52c21.03,54.09,31.56,113.55,31.56,178.36v38.52c0,65.25-10.53,124.8-31.56,178.67  c-21.05,53.88-50.41,100.19-88.08,138.91s-82.39,68.81-134.16,90.28c-51.78,21.47-108.39,32.19-169.83,32.19H3528.06z   M3749.66,5045.87v577.67h77.03c63.55,0,112.38-22.61,146.47-67.86s51.14-112.48,51.14-201.72v-39.78  c0-88.8-17.05-155.72-51.14-200.75s-83.77-67.56-149-67.56H3749.66z"></path>
<path class="st1" d="M5431.6,5794.01h-159.72l-409.75-652.19v652.19h-159.73v-919.25h159.73l411,654.72v-654.72h158.47V5794.01z"></path>
<path class="st1" d="M5576.83,5446.13c0-49.66,7.25-95.64,21.78-137.94c14.52-42.3,35.34-79.02,62.5-110.17s60.3-55.56,99.44-73.25  c39.14-17.67,83.55-26.52,133.22-26.52c50.08,0,94.91,8.84,134.47,26.52c39.56,17.69,72.92,42.09,100.08,73.25  c27.14,31.16,47.88,67.88,62.19,110.17s21.47,88.28,21.47,137.94v13.27c0,49.67-7.16,95.77-21.47,138.27  c-14.31,42.52-35.05,79.23-62.19,110.17c-27.16,30.94-60.41,55.13-99.75,72.59c-39.36,17.47-83.88,26.2-133.53,26.2  c-50.09,0-94.81-8.73-134.16-26.2c-39.36-17.47-72.61-41.66-99.77-72.59s-47.98-67.66-62.5-110.17  c-14.53-42.5-21.78-88.59-21.78-138.27V5446.13z M5730.25,5459.4c0,30.72,3.16,59.77,9.47,87.13s16.2,51.25,29.67,71.66  c13.47,20.42,30.61,36.52,51.45,48.3c20.83,11.78,45.56,17.67,74.19,17.67c28.19,0,52.7-5.89,73.55-17.67  c20.83-11.78,37.88-27.88,51.14-48.3c13.25-20.41,23.14-44.3,29.67-71.66c6.52-27.36,9.78-56.41,9.78-87.13v-13.27  c0-30.3-3.27-59.02-9.78-86.17c-6.53-27.16-16.52-50.94-29.98-71.34s-30.63-36.72-51.45-48.92c-20.84-12.2-45.56-18.31-74.19-18.31  s-53.16,6.11-73.56,18.31s-37.34,28.52-50.81,48.92s-23.36,44.19-29.67,71.34s-9.47,55.88-9.47,86.17V5459.4z"></path>
<path class="st1" d="M6313,5447.4c0-51.77,6.2-99.11,18.63-142.05c12.41-42.94,30.3-79.77,53.66-110.48s51.67-54.5,84.92-71.34  s70.7-25.27,112.39-25.27c37.88,0,71.22,6.53,100.06,19.58c28.83,13.05,53.98,31.78,75.45,56.19v-349.77h153.41v969.75h-138.89  l-7.58-70.72c-21.89,26.53-47.88,47.05-77.97,61.56s-65.34,21.78-105.75,21.78c-41.25,0-78.41-8.73-111.44-26.2  c-33.05-17.47-61.14-41.56-84.3-72.28s-41.03-67.23-53.66-109.55c-12.63-42.3-18.94-88.28-18.94-137.95V5447.4z M6466.42,5460.65  c0,30.31,2.83,58.84,8.52,85.56s14.73,50.19,27.16,70.39c12.41,20.2,28.3,36.09,47.66,47.67s42.94,17.36,70.72,17.36  c34.5,0,62.81-7.67,84.91-23.05c22.09-15.36,39.67-35.67,52.73-60.92v-291.69c-13.06-25.25-30.73-45.23-53.05-59.97  s-50.08-22.11-83.33-22.11c-27.78,0-51.47,5.91-71.03,17.69c-19.58,11.78-35.58,27.78-47.98,47.98  c-12.42,20.2-21.58,43.88-27.47,71.02c-5.89,27.16-8.83,56.09-8.83,86.81V5460.65z"></path>
<path class="st1" d="M7372.42,5806.63c-50.52,0-95.97-8.42-136.38-25.25s-74.72-39.97-102.91-69.44  c-28.2-29.47-49.88-64.41-65.03-104.81s-22.72-83.97-22.72-130.69v-25.27c0-53.88,7.98-102.59,23.98-146.16  s37.88-80.59,65.66-111.11s60.5-54.09,98.17-70.72s78.19-24.94,121.55-24.94c49.66,0,92.8,8.31,129.42,24.94  c36.61,16.63,66.91,39.89,90.91,69.77c24,29.89,41.89,65.45,53.67,106.7s17.67,86.5,17.67,135.73v65.66h-446.36  c2.09,26.53,7.67,50.94,16.73,73.25c9.05,22.31,21.36,41.56,36.94,57.77c15.56,16.2,33.98,28.94,55.23,38.19  c21.25,9.27,45.36,13.89,72.3,13.89c37.88,0,70.8-7.56,98.8-22.72c27.98-15.16,52.3-35.98,72.92-62.52l82.72,78.92  c-10.95,16.42-24.53,32.31-40.73,47.67c-16.2,15.38-35.14,29.05-56.81,41.05c-21.69,12-46.2,21.67-73.56,29.03  S7406.51,5806.63,7372.42,5806.63z M7354.11,5221.38c-42.09,0-76.08,14.73-101.95,44.19c-25.89,29.47-42.41,70.5-49.56,123.11  h292.31v-11.36c-1.27-20.2-4.53-39.67-9.78-58.41c-5.27-18.72-13.38-35.34-24.31-49.88c-10.95-14.52-25.16-26.09-42.63-34.72  S7379.36,5221.38,7354.11,5221.38z"></path>
<path class="st1" d="M8148.37,5608.4c0-10.94-1.8-21.16-5.38-30.63s-10.63-18.3-21.14-26.52c-10.53-8.2-25.36-15.89-44.52-23.05  s-44.09-13.89-74.81-20.2c-36.63-7.56-69.97-17.03-100.06-28.41c-30.09-11.36-55.88-25.14-77.34-41.36  c-21.47-16.2-38.2-35.25-50.2-57.14c-12-21.88-17.98-47.13-17.98-75.75c0-27.78,6.09-54.19,18.31-79.23  c12.2-25.05,29.78-47.05,52.72-65.98s50.7-33.98,83.33-45.14s69.14-16.73,109.55-16.73c42.5,0,80.7,5.58,114.58,16.73  s62.61,26.53,86.19,46.09c23.56,19.58,41.56,42.63,53.98,69.14c12.41,26.52,18.63,55.13,18.63,85.84h-153.42  c0-13.03-2.53-25.77-7.58-38.19c-5.06-12.41-12.64-23.45-22.73-33.14s-22.63-17.36-37.56-23.05s-32.3-8.53-52.08-8.53  c-19.38,0-36.2,2.42-50.52,7.27s-26.2,11.17-35.67,18.95s-16.53,16.83-21.16,27.14s-6.94,21.16-6.94,32.5  c0,11.38,2.09,21.47,6.31,30.31s11.69,16.84,22.42,24c10.72,7.16,25.14,13.78,43.23,19.88c18.09,6.11,40.83,12.11,68.2,18  c39.56,8.42,75.02,18.31,106.38,29.67c31.34,11.38,57.86,25.27,79.55,41.67c21.67,16.42,38.19,35.78,49.56,58.09  c11.36,22.31,17.05,48.81,17.05,79.53c0,30.31-6.53,58.09-19.58,83.34s-31.67,47.03-55.88,65.34s-53.34,32.53-87.44,42.63  c-34.09,10.08-71.98,15.14-113.64,15.14c-46.72,0-88.08-6.64-124.06-19.88c-35.98-13.25-66.19-30.63-90.59-52.09  c-24.42-21.47-42.84-45.77-55.25-72.92c-12.42-27.14-18.63-54.81-18.63-83.03h149c1.27,21.06,6.11,38.73,14.53,53.05  c8.41,14.31,19.14,25.88,32.19,34.72s27.78,15.25,44.2,19.25c16.41,4,33.25,6,50.5,6c40.41,0,71.13-7.67,92.17-23.03  S8148.37,5633.24,8148.37,5608.4z"></path>
<path class="st0" d="M2877.75,2892.31l1626.5,1626.5l1626.5-1626.5l-1626.5-1626.5L2877.75,2892.31z M6025.44,2892.31  L4504.25,4413.5L2983.07,2892.31l1521.19-1521.19L6025.44,2892.31z"></path>
<path class="st1" d="M4732.32,2653.33l1127.12-1123.5l1362.49,1362.49L5859.43,4254.8l-543.04-546.67l-47.16,47.16l590.21,593.83  l1456.81-1456.81L5859.43,1435.5L4685.15,2606.16c-13.28,13.28-12.98,34.9,0.66,47.8h0  C4698.93,2666.38,4719.55,2666.1,4732.32,2653.33z"></path>
<path class="st1" d="M4504.25,2754.36c-69.86,0-126.48,56.63-126.48,126.48s56.63,126.48,126.48,126.48  c69.86,0,126.48-56.63,126.48-126.48S4574.11,2754.36,4504.25,2754.36z M4504.25,2956.74c-41.91,0-75.89-33.98-75.89-75.89  s33.98-75.89,75.89-75.89s75.89,33.98,75.89,75.89S4546.17,2956.74,4504.25,2956.74z"></path>
</svg>
